<?xml version="1.0" encoding="UTF-8" standalone="no"?>
<svg
   xmlns:dc="http://purl.org/dc/elements/1.1/"
   xmlns:cc="http://creativecommons.org/ns#"
   xmlns:rdf="http://www.w3.org/1999/02/22-rdf-syntax-ns#"
   xmlns:svg="http://www.w3.org/2000/svg"
   xmlns="http://www.w3.org/2000/svg"
   xmlns:sodipodi="http://sodipodi.sourceforge.net/DTD/sodipodi-0.dtd"
   xmlns:inkscape="http://www.inkscape.org/namespaces/inkscape"
   inkscape:version="1.0.2 (e86c870879, 2021-01-15)"
   sodipodi:docname="ayguci.svg"
   id="svg12"
   version="1"
   height="24"
   width="24">
  <metadata
     id="metadata18">
    <rdf:RDF>
      <cc:Work
         rdf:about="">
        <dc:format>image/svg+xml</dc:format>
        <dc:type
           rdf:resource="http://purl.org/dc/dcmitype/StillImage" />
        <dc:title></dc:title>
      </cc:Work>
    </rdf:RDF>
  </metadata>
  <defs
     id="defs16">
    <rect
       id="rect22"
       height="66.772911"
       width="60.393829"
       y="14.350573"
       x="-35.65414" />
    <rect
       x="-35.65414"
       y="14.350573"
       width="60.393829"
       height="66.772911"
       id="rect30" />
  </defs>
  <sodipodi:namedview
     inkscape:current-layer="svg12"
     inkscape:window-maximized="0"
     inkscape:window-y="72"
     inkscape:window-x="0"
     inkscape:cy="19.119891"
     inkscape:cx="22.492708"
     inkscape:zoom="15.613571"
     showgrid="false"
     id="namedview14"
     inkscape:window-height="951"
     inkscape:window-width="1319"
     inkscape:pageshadow="2"
     inkscape:pageopacity="0"
     guidetolerance="10"
     gridtolerance="10"
     objecttolerance="10"
     borderopacity="1"
     bordercolor="#666666"
     pagecolor="#ffffff"
     inkscape:document-rotation="0" />
  <g
     id="g841"
     transform="matrix(0.04612829,0,0,0.04612829,0.36606377,0.1897142)">
    <path
       style="opacity:0.2;stroke-width:8.42105"
       d="m 244.6628,24.421053 c -26.12547,0 -47.1546,21.029131 -47.1546,47.154602 V 93.680918 A 176.8421,176.8421 0 0 0 141.73517,125.90131 L 122.57398,114.84868 C 99.948662,101.78595 71.212384,109.49309 58.149646,132.11842 l -11.792764,20.39474 c -13.062736,22.62533 -5.355585,51.3616 17.269738,64.42434 l 19.078951,11.01974 a 176.8421,176.8421 0 0 0 -3.092109,32.25329 176.8421,176.8421 0 0 0 3.092109,32.25328 L 63.62662,303.48355 c -22.625323,13.06274 -30.332474,41.79902 -17.269738,64.42434 l 11.792764,20.39474 c 13.062738,22.62533 41.799016,30.33248 64.424334,17.26974 l 19.02961,-10.98685 a 176.8421,176.8421 0 0 0 55.90461,32.10527 v 22.15461 c 0,26.12547 21.02913,47.1546 47.1546,47.1546 h 23.58553 c 26.12548,0 47.1546,-21.02913 47.1546,-47.1546 v -22.23685 a 176.8421,176.8421 0 0 0 55.77303,-32.08881 l 19.16119,11.05263 c 22.62532,13.06274 51.3616,5.3556 64.42434,-17.26974 l 11.79276,-20.39474 c 13.06274,-22.62532 5.35558,-51.3616 -17.26973,-64.42434 l -19.07896,-11.01974 a 176.8421,176.8421 0 0 0 3.09211,-32.25328 176.8421,176.8421 0 0 0 -3.09211,-32.25329 l 19.07896,-11.01974 c 22.62532,-13.06274 30.33247,-41.79901 17.26973,-64.42434 l -11.79276,-20.39474 c -13.06274,-22.62533 -41.79902,-30.33247 -64.42434,-17.26974 l -19.02961,10.98685 A 176.8421,176.8421 0 0 0 315.40293,93.713819 V 71.575655 c 0,-26.125471 -21.02912,-47.154602 -47.1546,-47.154602 z"
       id="path2" />
    <path
       style="fill:#18b4d9;stroke-width:8.42105"
       d="m 244.6628,16 c -26.12547,0 -47.1546,21.029132 -47.1546,47.154606 V 85.259865 A 176.8421,176.8421 0 0 0 141.73517,117.48026 L 122.57398,106.42763 C 99.948662,93.364893 71.212384,101.07204 58.149646,123.69736 l -11.792764,20.39475 c -13.062736,22.62533 -5.355585,51.3616 17.269738,64.42434 l 19.078951,11.01973 a 176.8421,176.8421 0 0 0 -3.092109,32.25329 176.8421,176.8421 0 0 0 3.092109,32.25329 L 63.62662,295.0625 c -22.625323,13.06274 -30.332474,41.79901 -17.269738,64.42434 l 11.792764,20.39474 c 13.062738,22.62532 41.799016,30.33247 64.424334,17.26974 l 19.02961,-10.98685 a 176.8421,176.8421 0 0 0 55.90461,32.10526 v 22.15461 c 0,26.12548 21.02913,47.15461 47.1546,47.15461 h 23.58553 c 26.12548,0 47.1546,-21.02913 47.1546,-47.15461 V 418.1875 a 176.8421,176.8421 0 0 0 55.77303,-32.08881 l 19.16119,11.05263 c 22.62532,13.06273 51.3616,5.35558 64.42434,-17.26974 l 11.79276,-20.39474 c 13.06274,-22.62533 5.35558,-51.3616 -17.26973,-64.42434 l -19.07896,-11.01974 a 176.8421,176.8421 0 0 0 3.09211,-32.25329 176.8421,176.8421 0 0 0 -3.09211,-32.25329 l 19.07896,-11.01973 c 22.62532,-13.06274 30.33247,-41.79901 17.26973,-64.42434 L 454.76149,123.69736 C 441.69875,101.07203 412.96246,93.364893 390.33715,106.42763 l -19.02961,10.98685 A 176.8421,176.8421 0 0 0 315.40293,85.292766 V 63.154606 C 315.40293,37.029132 294.37381,16 268.24833,16 Z"
       id="path4" />
    <path
       style="opacity:0.2;fill:#ffffff;stroke-width:8.42105"
       d="m 244.6628,16 c -26.12547,0 -47.1546,21.029132 -47.1546,47.154606 v 8.421049 c 0,-26.12547 21.02913,-47.154602 47.1546,-47.154602 h 23.58553 c 26.12548,0 47.1546,21.029132 47.1546,47.154602 V 63.154606 C 315.40293,37.029132 294.37381,16 268.24833,16 Z M 197.5082,85.259865 A 176.8421,176.8421 0 0 0 141.73517,117.48026 L 122.57398,106.42763 C 99.948662,93.364893 71.212384,101.07204 58.149646,123.69736 l -11.792764,20.39475 c -5.080897,8.80037 -6.977758,18.52663 -6.11842,27.89474 0.587251,-6.65067 2.549115,-13.29147 6.11842,-19.47369 l 11.792764,-20.39474 c 13.062738,-22.62533 41.799016,-30.33247 64.424334,-17.26974 l 19.16119,11.05263 A 176.8421,176.8421 0 0 1 197.5082,93.680918 Z m 117.89473,0.03284 v 8.421052 a 176.8421,176.8421 0 0 1 55.90461,32.121713 l 19.02961,-10.98685 c 22.62532,-13.06273 51.3616,-5.35559 64.42434,17.26974 l 11.79276,20.39474 c 3.56931,6.18222 5.53118,12.82302 6.11842,19.47369 0.85933,-9.36811 -1.03753,-19.09437 -6.11842,-27.89474 L 454.76149,123.69731 C 441.69875,101.07197 412.96247,93.364834 390.33715,106.42757 l -19.02961,10.98685 A 176.8421,176.8421 0 0 0 315.40293,85.292766 Z m 115.9375,142.006575 -1.13487,0.65794 a 176.8421,176.8421 0 0 1 2.87829,28.38818 176.8421,176.8421 0 0 0 0.21382,-4.55593 176.8421,176.8421 0 0 0 -1.95724,-24.49013 z m -349.720392,0.0328 a 176.8421,176.8421 0 0 0 -2.006576,24.45734 176.8421,176.8421 0 0 0 0.21381,3.86513 176.8421,176.8421 0 0 1 2.878291,-27.69736 z M 431.29109,284.6676 a 176.8421,176.8421 0 0 1 -1.08553,7.79605 l 19.07896,11.01974 c 13.82494,7.98184 22.03818,21.81278 23.38815,36.5296 1.56193,-17.68904 -6.94505,-35.45722 -23.38815,-44.95065 z M 81.570699,284.7005 63.62662,295.06234 c -16.443105,9.49343 -24.950083,27.26161 -23.388158,44.95065 1.349977,-14.71682 9.563208,-28.54776 23.388158,-36.5296 l 19.078951,-11.01974 a 176.8421,176.8421 0 0 1 -1.134872,-7.76315 z"
       id="path6" />
    <path
       style="fill:#000000;fill-opacity:0.2;stroke-width:0.443988"
       d="m 298.19325,367.11861 c -0.21558,-0.27914 -0.59984,-2.39851 -0.85404,-4.70972 -0.40768,-3.70253 -0.63488,-4.46104 -1.91462,-6.37952 -0.7988,-1.19756 -1.47352,-2.38012 -1.49929,-2.6279 -0.0256,-0.24783 0.83811,-0.14918 1.91997,0.21918 4.62494,1.57475 10.91231,3.30146 13.39375,3.6783 3.96518,0.60213 8.67538,3.92863 5.04634,3.56385 -1.43454,-0.14409 -2.16371,-0.47008 -6.69115,-2.99065 -1.45284,-0.8088 -2.36286,-0.98243 -4.16509,-0.79463 -3.73553,0.3893 -5.38651,3.00466 -4.9015,7.76468 0.29592,2.93382 0.27928,3.07064 -0.33437,2.27641 z m -57.46532,2.68208 c -0.37344,-3.58416 0.14473,-6.27024 2.31673,-12.01045 1.65539,-4.37473 5.26085,-9.36576 11.21825,-15.52967 1.82838,-1.89175 3.29882,-3.67795 3.26758,-3.96936 -0.0413,-0.39125 -2.0503,-0.32514 -7.67395,0.25236 -5.27722,0.54209 -8.1733,0.65233 -9.42726,0.35941 l -1.81018,-0.42279 4.59881,-2.80235 c 8.59363,-5.23674 17.34494,-14.57551 17.69745,-18.88558 0.29089,-3.55698 -1.90864,-2.65418 -5.92589,2.4322 -3.00475,3.80457 -4.4744,4.74665 -7.98341,5.11747 -2.41451,0.25555 -7.17556,2.55748 -11.76179,5.68771 -5.95001,4.06099 -11.76194,7.5348 -13.32186,7.96235 -1.59205,0.43632 -4.52868,-0.70107 -6.78303,-2.62702 l -1.36431,-1.16554 1.65997,-1.42634 c 2.02029,-1.73595 4.50693,-5.05894 4.14071,-5.53333 -0.65132,-0.84373 -4.63347,-0.92777 -8.95263,-0.18895 l -4.4648,0.76368 -1.78658,-1.69473 c -0.9826,-0.93208 -2.46007,-2.71536 -3.28315,-3.9628 -1.20875,-1.83195 -1.38824,-2.35276 -0.93333,-2.7083 0.30965,-0.24211 2.70505,-0.91583 5.32307,-1.49715 4.53007,-1.00594 4.74178,-1.10068 4.38515,-1.96147 -1.09145,-2.63462 -2.20717,-3.24978 -8.25012,-4.54846 -6.75053,-1.45075 -9.63456,-2.84157 -12.25179,-5.90824 l -1.58737,-1.85996 4.36888,-0.13358 4.36888,-0.13357 -0.8038,-0.98913 c -0.78903,-0.9707 -2.88332,-2.31056 -10.92938,-6.99204 -4.70227,-2.73589 -6.97528,-4.97473 -7.6676,-7.55222 -0.27233,-1.01434 -0.41787,-1.93971 -0.32346,-2.05632 0.0948,-0.11661 1.17495,0.40023 2.40067,1.14858 1.22583,0.74837 2.47565,1.33494 2.77747,1.30351 0.30181,-0.0315 1.70713,0.63268 3.12291,1.47589 3.10806,1.8511 4.40392,2.31325 22.01248,7.85037 16.45464,5.17426 24.38815,7.25537 33.26072,8.72491 15.50001,2.56729 20.57828,2.40839 30.03361,-0.93959 5.87398,-2.07988 6.26828,-2.15942 15.52052,-3.13169 8.08346,-0.8502 10.26319,-0.92816 14.67581,-0.52979 5.78986,0.52268 10.14649,1.20142 9.87329,1.53819 -0.1759,0.21701 -9.5948,2.27994 -15.93364,3.48983 -1.74533,0.33324 -3.15918,0.74107 -3.14192,0.90657 0.0895,0.85937 4.99925,3.58315 10.49372,5.82169 l 3.7642,1.53361 -3.91845,2.50004 c -2.15509,1.37497 -4.57073,2.98652 -5.36811,3.58113 -1.63568,1.21979 -4.05889,3.88698 -4.00461,4.40796 0.0194,0.18895 0.71749,0.62011 1.55061,0.958 1.26029,0.51105 3.09096,0.48055 10.89328,-0.18155 8.50037,-0.72131 9.45728,-0.72507 10.22033,-0.0401 1.07755,0.96691 2.56075,0.79917 5.58538,-0.63143 1.33149,-0.62981 2.97235,-1.20144 3.64646,-1.27029 1.71647,-0.17493 4.62477,0.36572 4.6774,0.87024 0.0246,0.23144 -0.11097,0.43696 -0.30024,0.45666 -0.18937,0.0197 -1.03303,0.86031 -1.87502,1.8679 l -1.53105,1.83202 0.9511,6.37506 c 0.52301,3.5063 1.23584,7.9022 1.58394,9.76866 l 0.63301,3.39358 -2.76698,0.28834 -2.767,0.28834 0.54335,3.06811 c 0.29873,1.68751 0.4587,3.07697 0.35549,3.08775 -0.10362,0.0118 -2.36478,-1.22386 -5.02504,-2.74363 -2.66026,-1.51974 -7.09803,-3.96942 -9.86176,-5.44371 l -5.02479,-2.68053 -2.64079,0.55726 -2.64064,0.55727 -4.28881,-6.71971 c -4.01622,-6.29245 -5.35244,-7.99279 -5.19565,-6.61157 0.0335,0.31795 0.96905,3.48764 2.07327,7.04443 2.85568,9.19795 2.85639,9.18862 -0.64428,7.83922 -1.06963,-0.41229 -2.51349,-0.85042 -3.20845,-0.97366 -1.25459,-0.22243 -1.26205,-0.20911 -1.04605,1.86446 l 0.2177,2.08847 -1.45239,-0.0156 c -1.97639,-0.0215 -8.82638,2.18717 -17.00916,5.48415 -13.5936,5.477 -20.77602,9.75446 -25.26729,15.04769 l -1.68962,1.99134 z m 88.25849,-11.63828 c -0.57135,-5.16781 -0.55401,-5.22206 1.84835,-4.58604 0.70042,0.18583 4.50105,0.18721 8.44598,0.003 9.95628,-0.46502 10.79527,-0.0774 2.97193,1.37273 -3.46848,0.64297 -7.0346,1.46191 -7.92464,1.81987 -1.88795,0.75931 -4.43549,3.33943 -4.3358,4.39115 0.0413,0.39987 -0.0537,0.97083 -0.20264,1.26789 -0.14941,0.29708 -0.51088,-1.62381 -0.80318,-4.26862 z m 18.81994,-20.50085 c 0.32733,-4.69523 0.22165,-5.96396 -0.57864,-6.9456 -0.92584,-1.13581 -3.26907,-1.50362 -4.45659,-0.69945 -0.66742,0.45196 -0.73193,0.82914 -0.35682,2.08912 0.43504,1.46187 0.40917,1.51783 -0.52531,1.13639 -1.93802,-0.79112 -2.50574,-2.41984 -1.73616,-4.98057 l 0.47312,-1.57416 1.92308,0.53319 c 1.8004,0.49917 2.05856,0.46863 4.0455,-0.47919 2.10898,-1.00606 2.12711,-1.00683 2.89792,-0.11896 1.15181,1.32696 3.49592,1.855 6.73595,1.51734 3.31131,-0.34507 3.47443,-0.13025 2.28918,3.01556 -1.55506,4.12743 -4.3657,6.66954 -8.48169,7.67161 l -2.3507,0.57225 z m 4.72992,-14.56387 c -0.57582,-0.51518 -1.69403,-1.77325 -2.48498,-2.79562 -1.86164,-2.40643 -2.59356,-2.82306 -4.61931,-2.62918 -1.79855,0.17179 -2.24512,0.92487 -2.44264,4.1171 l -0.0886,1.43079 -1.89632,-0.98903 -1.89613,-0.98901 -1.29356,1.85485 -1.29357,1.85486 -2.65851,-1.96539 c -4.16737,-3.0811 -7.9504,-3.5669 -12.92528,-1.65986 -3.57317,1.36977 -4.16589,1.33843 -4.6581,-0.24618 l -0.42175,-1.35726 -2.28787,0.52275 c -1.25821,0.28756 -3.96632,0.7997 -6.01794,1.13823 l -3.73024,0.61548 3.3509,-2.11323 c 1.84308,-1.1623 4.78527,-2.80656 6.53832,-3.65395 1.75308,-0.84736 3.25869,-1.61291 3.34589,-1.70126 0.47656,-0.48294 -1.5307,-1.47886 -5.50424,-2.73075 -2.46228,-0.77575 -4.79643,-1.65476 -5.18703,-1.95335 -0.60951,-0.46592 -0.36815,-0.57909 1.70247,-0.79832 4.57575,-0.4847 18.55684,-5.87365 20.74415,-7.99601 1.89412,-1.83802 1.29233,-2.9381 -2.54929,-4.65936 -4.49252,-2.01293 -16.17607,-8.15253 -18.29983,-9.61646 l -1.68337,-1.16028 2.45628,-0.27362 c 5.16327,-0.57609 12.1588,0.53877 20.95852,3.34038 10.55927,3.36182 16.78459,6.56513 23.444,12.06332 3.9422,3.25485 4.13014,3.35387 4.30437,2.26843 0.16692,-1.03946 0.30736,-0.92815 1.6693,1.323 1.12347,1.8568 1.71707,3.59636 2.42724,7.11252 1.09375,5.4145 0.90861,7.68801 -0.82077,10.08316 -1.00197,1.38763 -1.38781,1.57631 -4.1204,2.01575 -2.71727,0.43684 -3.11834,0.39239 -4.06178,-0.45201 z m -6.94282,-0.76874 c -0.23407,-2.2464 0.43925,-2.67562 2.09298,-1.33408 0.9921,0.80494 1.44481,1.90616 0.61981,1.50786 -0.24911,-0.12032 -0.81551,0.22829 -1.25856,0.77437 -0.44303,0.54616 -0.9049,1.00339 -1.02632,1.01604 -0.12143,0.0117 -0.31396,-0.8712 -0.42791,-1.96419 z m -30.89991,-24.50867 c -1.2508,-0.22288 -3.93279,-0.53276 -5.95995,-0.68863 -2.02715,-0.15581 -4.55366,-0.49157 -5.61439,-0.74587 -1.06066,-0.25436 -4.56115,-0.47951 -7.77892,-0.50034 -6.53285,-0.0423 -16.11261,1.32295 -21.59574,3.07774 -1.66321,0.53226 -4.538,1.33934 -6.38847,1.79353 l -3.36463,0.82579 -7.31246,-2.61892 c -13.50754,-4.83757 -22.65331,-7.14246 -33.81851,-8.52285 -9.6856,-1.19745 -9.20993,-1.02304 -13.47566,-4.9409 -5.45084,-5.00614 -21.67424,-24.81882 -25.66255,-31.34012 -12.72106,-20.79963 -27.15014,-28.50537 -64.66191,-34.53194 -19.10628,-3.06964 -23.95137,-3.99751 -27.32893,-5.23384 -6.14288,-2.24856 -6.54887,-3.16389 -1.04421,-2.3536 5.13019,0.75514 16.31756,1.33938 24.23849,1.26583 5.36257,-0.0498 7.2163,-0.21851 8.84405,-0.80498 1.13255,-0.40808 1.98273,-0.93488 1.8891,-1.17065 -0.0936,-0.23577 -2.91147,-1.2536 -6.26193,-2.2618 -5.97816,-1.79897 -12.67364,-4.60856 -17.37249,-7.28984 -1.30439,-0.74428 -2.13696,-1.37768 -1.85038,-1.40758 0.28651,-0.0298 4.0874,0.78892 8.44633,1.81952 10.48572,2.47907 20.63751,4.41369 30.88627,5.88591 9.59189,1.37787 10.8793,1.62078 18.54813,3.50023 5.59963,1.37236 7.10437,1.59132 6.21697,0.90468 -0.25366,-0.19634 -5.14601,-1.941 -10.8719,-3.87701 -18.00919,-6.08926 -39.94353,-17.23401 -44.91771,-22.82252 -0.84849,-0.95332 -1.46681,-1.82694 -1.3739,-1.94139 0.093,-0.11466 2.10055,0.9857 4.46137,2.44479 2.36099,1.45911 5.92386,3.27453 7.91758,4.03426 1.99364,0.75977 4.24447,1.732 5.00172,2.16051 6.37307,3.60627 29.51702,9.33733 34.02141,8.42457 1.41482,-0.28663 1.37584,-0.32729 -7.13384,-7.43296 -8.1513,-6.80636 -14.77339,-13.25785 -14.90502,-14.52091 -0.0335,-0.32185 -0.90773,-1.96398 -1.9426,-3.64919 -2.00964,-3.27241 -2.63729,-5.1109 -1.15252,-3.37614 4.35913,5.09315 17.34301,16.18345 24.26172,20.72343 11.0676,7.2623 32.90586,16.85252 32.64354,14.33532 -0.0774,-0.74517 -2.47802,-4.05729 -9.20402,-12.69982 -7.02457,-9.02615 -11.01061,-15.15696 -13.86267,-21.32173 -1.93282,-4.17761 -2.16513,-5.01064 -2.65384,-9.52005 -0.6382,-5.88884 -0.0828,-7.61613 1.13853,-3.53858 2.60844,8.71116 5.59214,14.18796 12.04872,22.11615 12.84847,15.77699 36.83635,33.63496 57.51434,42.81705 3.74184,1.66154 7.09046,2.06444 6.96262,0.83777 -0.0291,-0.28008 -0.66504,-3.27246 -1.41308,-6.64969 -1.43171,-6.46417 -2.3902,-16.14305 -1.74478,-17.61944 0.27163,-0.62149 0.45782,-0.12693 0.76298,2.0274 1.10728,7.81525 7.47983,19.07286 14.23099,25.14009 1.92959,1.73398 3.54124,2.69008 6.05578,3.59223 3.72733,1.33737 3.56842,1.14194 5.33336,6.55804 2.36248,7.24928 5.47678,14.33581 8.9104,20.27509 6.17509,10.68134 11.45275,16.78385 21.39538,24.7397 6.91748,5.53516 9.89159,7.48161 17.91011,11.72137 2.4035,1.27083 4.37979,2.40484 4.39175,2.51999 0.0344,0.32493 -0.89091,0.28106 -3.36453,-0.1597 z m 26.18477,-11.33809 c -4.1899,-2.25445 -5.54567,-2.70326 -14.64121,-4.84647 -7.1174,-1.67715 -11.7645,-2.11082 -20.12169,-1.8778 -8.12623,0.22661 -8.54269,0.11369 -12.065,-3.26925 -2.49563,-2.39691 -6.90869,-8.06573 -7.60663,-9.77099 -0.38803,-0.94845 -0.32476,-1.00993 0.87666,-0.85136 0.71222,0.0939 3.91669,0.0135 7.121,-0.17765 7.19949,-0.43085 10.84728,-1.53924 16.08737,-4.88825 5.77868,-3.69323 8.22134,-7.58251 7.72911,-12.30618 -0.32584,-3.12691 -1.20444,-4.54576 -3.92549,-6.33875 -3.05966,-2.01615 -6.13612,-2.86539 -9.85227,-2.71965 -5.555,0.2178 -3.57817,-0.45298 3.23362,-1.09729 6.94853,-0.65725 6.35714,-0.70873 18.58227,1.61733 3.2338,0.61531 7.10736,1.03771 8.96787,0.97796 l 3.27505,-0.10531 -0.43583,-1.02084 c -2.0531,-4.80885 -8.322,-8.55018 -20.98014,-12.5212 -6.84981,-2.14892 -6.87137,-2.15985 -4.90801,-2.51149 3.06881,-0.54959 10.12557,-0.27598 13.8017,0.53514 4.97522,1.09769 8.28091,2.49139 17.02051,7.17582 8.22705,4.40976 9.75925,4.84857 10.50991,3.0098 0.65088,-1.59468 -0.70138,-9.36479 -2.15685,-12.39327 -2.6335,-5.47912 -7.76555,-10.66741 -14.23742,-14.39354 -2.33012,-1.34154 -3.36445,-2.15924 -2.91632,-2.30543 0.93843,-0.30616 6.75856,1.89941 9.73234,3.68814 3.15582,1.89827 15.0289,10.23178 20.89452,14.66561 8.81503,6.66321 11.47114,7.08683 12.33196,1.96679 0.41832,-2.48785 -0.91933,-8.38577 -3.03738,-13.38991 -2.05004,-4.84431 -7.30931,-13.21804 -9.8388,-15.66556 -1.12031,-1.08394 -1.96547,-2.05887 -1.8781,-2.1665 0.0871,-0.10745 1.42097,0.37757 2.96366,1.0782 8.88611,4.03552 17.7365,16.88218 21.27138,30.8764 0.91486,3.6218 0.94425,3.66939 2.18554,3.54005 4.70818,-0.49063 8.72043,-8.54807 8.07255,-16.21118 -0.12494,-1.47691 -0.14625,-3.29633 -0.0476,-4.04316 l 0.17976,-1.35792 0.5386,1.28309 c 0.29618,0.70564 0.90377,4.86074 1.35023,9.23351 0.75269,7.37342 0.75391,8.24123 0.0175,11.95625 -0.98691,4.97919 -2.83325,9.91798 -4.62431,12.37 -2.32113,3.17758 -5.12342,5.54165 -20.29495,17.12124 -8.07184,6.1608 -15.87197,12.25545 -17.33359,13.5437 -3.61409,3.18535 -8.68594,9.23177 -9.7979,11.68054 -0.50199,1.10561 -1.14415,2.03427 -1.4267,2.06372 -0.28261,0.0295 -2.36046,-0.94003 -4.61735,-2.15438 z"
       id="path860"
       inkscape:connector-curvature="0" />
    <path
       style="fill:#ffffff;fill-opacity:1;stroke-width:0.443988"
       d="m 298.19325,351.11861 c -0.21558,-0.27914 -0.59984,-2.39851 -0.85404,-4.70972 -0.40768,-3.70253 -0.63488,-4.46104 -1.91462,-6.37952 -0.7988,-1.19756 -1.47352,-2.38012 -1.49929,-2.6279 -0.0256,-0.24783 0.83811,-0.14918 1.91997,0.21918 4.62494,1.57475 10.91231,3.30146 13.39375,3.6783 3.96518,0.60213 8.67538,3.92863 5.04634,3.56385 -1.43454,-0.14409 -2.16371,-0.47008 -6.69115,-2.99065 -1.45284,-0.8088 -2.36286,-0.98243 -4.16509,-0.79463 -3.73553,0.3893 -5.38651,3.00466 -4.9015,7.76468 0.29592,2.93382 0.27928,3.07064 -0.33437,2.27641 z m -57.46532,2.68208 c -0.37344,-3.58416 0.14473,-6.27024 2.31673,-12.01045 1.65539,-4.37473 5.26085,-9.36576 11.21825,-15.52967 1.82838,-1.89175 3.29882,-3.67795 3.26758,-3.96936 -0.0413,-0.39125 -2.0503,-0.32514 -7.67395,0.25236 -5.27722,0.54209 -8.1733,0.65233 -9.42726,0.35941 l -1.81018,-0.42279 4.59881,-2.80235 c 8.59363,-5.23674 17.34494,-14.57551 17.69745,-18.88558 0.29089,-3.55698 -1.90864,-2.65418 -5.92589,2.4322 -3.00475,3.80457 -4.4744,4.74665 -7.98341,5.11747 -2.41451,0.25555 -7.17556,2.55748 -11.76179,5.68771 -5.95001,4.06099 -11.76194,7.5348 -13.32186,7.96235 -1.59205,0.43632 -4.52868,-0.70107 -6.78303,-2.62702 l -1.36431,-1.16554 1.65997,-1.42634 c 2.02029,-1.73595 4.50693,-5.05894 4.14071,-5.53333 -0.65132,-0.84373 -4.63347,-0.92777 -8.95263,-0.18895 l -4.4648,0.76368 -1.78658,-1.69473 c -0.9826,-0.93208 -2.46007,-2.71536 -3.28315,-3.9628 -1.20875,-1.83195 -1.38824,-2.35276 -0.93333,-2.7083 0.30965,-0.24211 2.70505,-0.91583 5.32307,-1.49715 4.53007,-1.00594 4.74178,-1.10068 4.38515,-1.96147 -1.09145,-2.63462 -2.20717,-3.24978 -8.25012,-4.54846 -6.75053,-1.45075 -9.63456,-2.84157 -12.25179,-5.90824 l -1.58737,-1.85996 4.36888,-0.13358 4.36888,-0.13357 -0.8038,-0.98913 c -0.78903,-0.9707 -2.88332,-2.31056 -10.92938,-6.99204 -4.70227,-2.73589 -6.97528,-4.97473 -7.6676,-7.55222 -0.27233,-1.01434 -0.41787,-1.93971 -0.32346,-2.05632 0.0948,-0.11661 1.17495,0.40023 2.40067,1.14858 1.22583,0.74837 2.47565,1.33494 2.77747,1.30351 0.30181,-0.0315 1.70713,0.63268 3.12291,1.47589 3.10806,1.8511 4.40392,2.31325 22.01248,7.85037 16.45464,5.17426 24.38815,7.25537 33.26072,8.72491 15.50001,2.56729 20.57828,2.40839 30.03361,-0.93959 5.87398,-2.07988 6.26828,-2.15942 15.52052,-3.13169 8.08346,-0.8502 10.26319,-0.92816 14.67581,-0.52979 5.78986,0.52268 10.14649,1.20142 9.87329,1.53819 -0.1759,0.21701 -9.5948,2.27994 -15.93364,3.48983 -1.74533,0.33324 -3.15918,0.74107 -3.14192,0.90657 0.0895,0.85937 4.99925,3.58315 10.49372,5.82169 l 3.7642,1.53361 -3.91845,2.50004 c -2.15509,1.37497 -4.57073,2.98652 -5.36811,3.58113 -1.63568,1.21979 -4.05889,3.88698 -4.00461,4.40796 0.0194,0.18895 0.71749,0.62011 1.55061,0.958 1.26029,0.51105 3.09096,0.48055 10.89328,-0.18155 8.50037,-0.72131 9.45728,-0.72507 10.22033,-0.0401 1.07755,0.96691 2.56075,0.79917 5.58538,-0.63143 1.33149,-0.62981 2.97235,-1.20144 3.64646,-1.27029 1.71647,-0.17493 4.62477,0.36572 4.6774,0.87024 0.0246,0.23144 -0.11097,0.43696 -0.30024,0.45666 -0.18937,0.0197 -1.03303,0.86031 -1.87502,1.8679 l -1.53105,1.83202 0.9511,6.37506 c 0.52301,3.5063 1.23584,7.9022 1.58394,9.76866 l 0.63301,3.39358 -2.76698,0.28834 -2.767,0.28834 0.54335,3.06811 c 0.29873,1.68751 0.4587,3.07697 0.35549,3.08775 -0.10362,0.0118 -2.36478,-1.22386 -5.02504,-2.74363 -2.66026,-1.51974 -7.09803,-3.96942 -9.86176,-5.44371 l -5.02479,-2.68053 -2.64079,0.55726 -2.64064,0.55727 -4.28881,-6.71971 c -4.01622,-6.29245 -5.35244,-7.99279 -5.19565,-6.61157 0.0335,0.31795 0.96905,3.48764 2.07327,7.04443 2.85568,9.19795 2.85639,9.18862 -0.64428,7.83922 -1.06963,-0.41229 -2.51349,-0.85042 -3.20845,-0.97366 -1.25459,-0.22243 -1.26205,-0.20911 -1.04605,1.86446 l 0.2177,2.08847 -1.45239,-0.0156 c -1.97639,-0.0215 -8.82638,2.18717 -17.00916,5.48415 -13.5936,5.477 -20.77602,9.75446 -25.26729,15.04769 l -1.68962,1.99134 z m 88.25849,-11.63828 c -0.57135,-5.16781 -0.55401,-5.22206 1.84835,-4.58604 0.70042,0.18583 4.50105,0.18721 8.44598,0.003 9.95628,-0.46502 10.79527,-0.0774 2.97193,1.37273 -3.46848,0.64297 -7.0346,1.46191 -7.92464,1.81987 -1.88795,0.75931 -4.43549,3.33943 -4.3358,4.39115 0.0413,0.39987 -0.0537,0.97083 -0.20264,1.26789 -0.14941,0.29708 -0.51088,-1.62381 -0.80318,-4.26862 z m 18.81994,-20.50085 c 0.32733,-4.69523 0.22165,-5.96396 -0.57864,-6.9456 -0.92584,-1.13581 -3.26907,-1.50362 -4.45659,-0.69945 -0.66742,0.45196 -0.73193,0.82914 -0.35682,2.08912 0.43504,1.46187 0.40917,1.51783 -0.52531,1.13639 -1.93802,-0.79112 -2.50574,-2.41984 -1.73616,-4.98057 l 0.47312,-1.57416 1.92308,0.53319 c 1.8004,0.49917 2.05856,0.46863 4.0455,-0.47919 2.10898,-1.00606 2.12711,-1.00683 2.89792,-0.11896 1.15181,1.32696 3.49592,1.855 6.73595,1.51734 3.31131,-0.34507 3.47443,-0.13025 2.28918,3.01556 -1.55506,4.12743 -4.3657,6.66954 -8.48169,7.67161 l -2.3507,0.57225 z m 4.72992,-14.56387 c -0.57582,-0.51518 -1.69403,-1.77325 -2.48498,-2.79562 -1.86164,-2.40643 -2.59356,-2.82306 -4.61931,-2.62918 -1.79855,0.17179 -2.24512,0.92487 -2.44264,4.1171 l -0.0886,1.43079 -1.89632,-0.98903 -1.89613,-0.98901 -1.29356,1.85485 -1.29357,1.85486 -2.65851,-1.96539 c -4.16737,-3.0811 -7.9504,-3.5669 -12.92528,-1.65986 -3.57317,1.36977 -4.16589,1.33843 -4.6581,-0.24618 l -0.42175,-1.35726 -2.28787,0.52275 c -1.25821,0.28756 -3.96632,0.7997 -6.01794,1.13823 l -3.73024,0.61548 3.3509,-2.11323 c 1.84308,-1.1623 4.78527,-2.80656 6.53832,-3.65395 1.75308,-0.84736 3.25869,-1.61291 3.34589,-1.70126 0.47656,-0.48294 -1.5307,-1.47886 -5.50424,-2.73075 -2.46228,-0.77575 -4.79643,-1.65476 -5.18703,-1.95335 -0.60951,-0.46592 -0.36815,-0.57909 1.70247,-0.79832 4.57575,-0.4847 18.55684,-5.87365 20.74415,-7.99601 1.89412,-1.83802 1.29233,-2.9381 -2.54929,-4.65936 -4.49252,-2.01293 -16.17607,-8.15253 -18.29983,-9.61646 l -1.68337,-1.16028 2.45628,-0.27362 c 5.16327,-0.57609 12.1588,0.53877 20.95852,3.34038 10.55927,3.36182 16.78459,6.56513 23.444,12.06332 3.9422,3.25485 4.13014,3.35387 4.30437,2.26843 0.16692,-1.03946 0.30736,-0.92815 1.6693,1.323 1.12347,1.8568 1.71707,3.59636 2.42724,7.11252 1.09375,5.4145 0.90861,7.68801 -0.82077,10.08316 -1.00197,1.38763 -1.38781,1.57631 -4.1204,2.01575 -2.71727,0.43684 -3.11834,0.39239 -4.06178,-0.45201 z m -6.94282,-0.76874 c -0.23407,-2.2464 0.43925,-2.67562 2.09298,-1.33408 0.9921,0.80494 1.44481,1.90616 0.61981,1.50786 -0.24911,-0.12032 -0.81551,0.22829 -1.25856,0.77437 -0.44303,0.54616 -0.9049,1.00339 -1.02632,1.01604 -0.12143,0.0117 -0.31396,-0.8712 -0.42791,-1.96419 z m -30.89991,-24.50867 c -1.2508,-0.22288 -3.93279,-0.53276 -5.95995,-0.68863 -2.02715,-0.15581 -4.55366,-0.49157 -5.61439,-0.74587 -1.06066,-0.25436 -4.56115,-0.47951 -7.77892,-0.50034 -6.53285,-0.0423 -16.11261,1.32295 -21.59574,3.07774 -1.66321,0.53226 -4.538,1.33934 -6.38847,1.79353 l -3.36463,0.82579 -7.31246,-2.61892 c -13.50754,-4.83757 -22.65331,-7.14246 -33.81851,-8.52285 -9.6856,-1.19745 -9.20993,-1.02304 -13.47566,-4.9409 -5.45084,-5.00614 -21.67424,-24.81882 -25.66255,-31.34012 -12.72106,-20.79963 -27.15014,-28.50537 -64.66191,-34.53194 -19.10628,-3.06964 -23.95137,-3.99751 -27.32893,-5.23384 -6.14288,-2.24856 -6.54887,-3.16389 -1.04421,-2.3536 5.13019,0.75514 16.31756,1.33938 24.23849,1.26583 5.36257,-0.0498 7.2163,-0.21851 8.84405,-0.80498 1.13255,-0.40808 1.98273,-0.93488 1.8891,-1.17065 -0.0936,-0.23577 -2.91147,-1.2536 -6.26193,-2.2618 -5.97816,-1.79897 -12.67364,-4.60856 -17.37249,-7.28984 -1.30439,-0.74428 -2.13696,-1.37768 -1.85038,-1.40758 0.28651,-0.0298 4.0874,0.78892 8.44633,1.81952 10.48572,2.47907 20.63751,4.41369 30.88627,5.88591 9.59189,1.37787 10.8793,1.62078 18.54813,3.50023 5.59963,1.37236 7.10437,1.59132 6.21697,0.90468 -0.25366,-0.19634 -5.14601,-1.941 -10.8719,-3.87701 -18.00919,-6.08926 -39.94353,-17.23401 -44.91771,-22.82252 -0.84849,-0.95332 -1.46681,-1.82694 -1.3739,-1.94139 0.093,-0.11466 2.10055,0.9857 4.46137,2.44479 2.36099,1.45911 5.92386,3.27453 7.91758,4.03426 1.99364,0.75977 4.24447,1.732 5.00172,2.16051 6.37307,3.60627 29.51702,9.33733 34.02141,8.42457 1.41482,-0.28663 1.37584,-0.32729 -7.13384,-7.43296 -8.1513,-6.80636 -14.77339,-13.25785 -14.90502,-14.52091 -0.0335,-0.32185 -0.90773,-1.96398 -1.9426,-3.64919 -2.00964,-3.27241 -2.63729,-5.1109 -1.15252,-3.37614 4.35913,5.09315 17.34301,16.18345 24.26172,20.72343 11.0676,7.2623 32.90586,16.85252 32.64354,14.33532 -0.0774,-0.74517 -2.47802,-4.05729 -9.20402,-12.69982 -7.02457,-9.02615 -11.01061,-15.15696 -13.86267,-21.32173 -1.93282,-4.17761 -2.16513,-5.01064 -2.65384,-9.52005 -0.6382,-5.88884 -0.0828,-7.61613 1.13853,-3.53858 2.60844,8.71116 5.59214,14.18796 12.04872,22.11615 12.84847,15.77699 36.83635,33.63496 57.51434,42.81705 3.74184,1.66154 7.09046,2.06444 6.96262,0.83777 -0.0291,-0.28008 -0.66504,-3.27246 -1.41308,-6.64969 -1.43171,-6.46417 -2.3902,-16.14305 -1.74478,-17.61944 0.27163,-0.62149 0.45782,-0.12693 0.76298,2.0274 1.10728,7.81525 7.47983,19.07286 14.23099,25.14009 1.92959,1.73398 3.54124,2.69008 6.05578,3.59223 3.72733,1.33737 3.56842,1.14194 5.33336,6.55804 2.36248,7.24928 5.47678,14.33581 8.9104,20.27509 6.17509,10.68134 11.45275,16.78385 21.39538,24.7397 6.91748,5.53516 9.89159,7.48161 17.91011,11.72137 2.4035,1.27083 4.37979,2.40484 4.39175,2.51999 0.0344,0.32493 -0.89091,0.28106 -3.36453,-0.1597 z m 26.18477,-11.33809 c -4.1899,-2.25445 -5.54567,-2.70326 -14.64121,-4.84647 -7.1174,-1.67715 -11.7645,-2.11082 -20.12169,-1.8778 -8.12623,0.22661 -8.54269,0.11369 -12.065,-3.26925 -2.49563,-2.39691 -6.90869,-8.06573 -7.60663,-9.77099 -0.38803,-0.94845 -0.32476,-1.00993 0.87666,-0.85136 0.71222,0.0939 3.91669,0.0135 7.121,-0.17765 7.19949,-0.43085 10.84728,-1.53924 16.08737,-4.88825 5.77868,-3.69323 8.22134,-7.58251 7.72911,-12.30618 -0.32584,-3.12691 -1.20444,-4.54576 -3.92549,-6.33875 -3.05966,-2.01615 -6.13612,-2.86539 -9.85227,-2.71965 -5.555,0.2178 -3.57817,-0.45298 3.23362,-1.09729 6.94853,-0.65725 6.35714,-0.70873 18.58227,1.61733 3.2338,0.61531 7.10736,1.03771 8.96787,0.97796 l 3.27505,-0.10531 -0.43583,-1.02084 c -2.0531,-4.80885 -8.322,-8.55018 -20.98014,-12.5212 -6.84981,-2.14892 -6.87137,-2.15985 -4.90801,-2.51149 3.06881,-0.54959 10.12557,-0.27598 13.8017,0.53514 4.97522,1.09769 8.28091,2.49139 17.02051,7.17582 8.22705,4.40976 9.75925,4.84857 10.50991,3.0098 0.65088,-1.59468 -0.70138,-9.36479 -2.15685,-12.39327 -2.6335,-5.47912 -7.76555,-10.66741 -14.23742,-14.39354 -2.33012,-1.34154 -3.36445,-2.15924 -2.91632,-2.30543 0.93843,-0.30616 6.75856,1.89941 9.73234,3.68814 3.15582,1.89827 15.0289,10.23178 20.89452,14.66561 8.81503,6.66321 11.47114,7.08683 12.33196,1.96679 0.41832,-2.48785 -0.91933,-8.38577 -3.03738,-13.38991 -2.05004,-4.84431 -7.30931,-13.21804 -9.8388,-15.66556 -1.12031,-1.08394 -1.96547,-2.05887 -1.8781,-2.1665 0.0871,-0.10745 1.42097,0.37757 2.96366,1.0782 8.88611,4.03552 17.7365,16.88218 21.27138,30.8764 0.91486,3.6218 0.94425,3.66939 2.18554,3.54005 4.70818,-0.49063 8.72043,-8.54807 8.07255,-16.21118 -0.12494,-1.47691 -0.14625,-3.29633 -0.0476,-4.04316 l 0.17976,-1.35792 0.5386,1.28309 c 0.29618,0.70564 0.90377,4.86074 1.35023,9.23351 0.75269,7.37342 0.75391,8.24123 0.0175,11.95625 -0.98691,4.97919 -2.83325,9.91798 -4.62431,12.37 -2.32113,3.17758 -5.12342,5.54165 -20.29495,17.12124 -8.07184,6.1608 -15.87197,12.25545 -17.33359,13.5437 -3.61409,3.18535 -8.68594,9.23177 -9.7979,11.68054 -0.50199,1.10561 -1.14415,2.03427 -1.4267,2.06372 -0.28261,0.0295 -2.36046,-0.94003 -4.61735,-2.15438 z"
       id="path4487"
       inkscape:connector-curvature="0" />
  </g>
</svg>
