<?xml version="1.0" encoding="UTF-8" standalone="no"?>
<svg
   xmlns:dc="http://purl.org/dc/elements/1.1/"
   xmlns:cc="http://creativecommons.org/ns#"
   xmlns:rdf="http://www.w3.org/1999/02/22-rdf-syntax-ns#"
   xmlns:svg="http://www.w3.org/2000/svg"
   xmlns="http://www.w3.org/2000/svg"
   xmlns:sodipodi="http://sodipodi.sourceforge.net/DTD/sodipodi-0.dtd"
   xmlns:inkscape="http://www.inkscape.org/namespaces/inkscape"
   width="24"
   height="24"
   version="1"
   id="svg12"
   sodipodi:docname="FTerm.svg"
   inkscape:version="1.0.2 (e86c870879, 2021-01-15)">
  <metadata
     id="metadata18">
    <rdf:RDF>
      <cc:Work
         rdf:about="">
        <dc:format>image/svg+xml</dc:format>
        <dc:type
           rdf:resource="http://purl.org/dc/dcmitype/StillImage" />
        <dc:title></dc:title>
      </cc:Work>
    </rdf:RDF>
  </metadata>
  <defs
     id="defs16" />
  <sodipodi:namedview
     pagecolor="#ffffff"
     bordercolor="#666666"
     borderopacity="1"
     objecttolerance="10"
     gridtolerance="10"
     guidetolerance="10"
     inkscape:pageopacity="0"
     inkscape:pageshadow="2"
     inkscape:window-width="1920"
     inkscape:window-height="1026"
     id="namedview14"
     showgrid="false"
     inkscape:zoom="15.813422"
     inkscape:cx="29.97662"
     inkscape:cy="23.962213"
     inkscape:window-x="0"
     inkscape:window-y="28"
     inkscape:window-maximized="1"
     inkscape:current-layer="svg12"
     inkscape:document-rotation="0" />
  <g
     id="g843"
     transform="matrix(0.39259529,0,0,0.39259529,-0.42794583,-0.01840311)">
    <path
       style="opacity:0.2"
       d="m 4,53 v 1 c 0,1.662 1.338,3 3,3 h 50 c 1.662,0 3,-1.338 3,-3 v -1 c 0,1.662 -1.338,3 -3,3 H 7 C 5.338,56 4,54.662 4,53 Z"
       id="path2" />
    <rect
       style="fill:#4f4f4f"
       width="56"
       height="48"
       x="4"
       y="8"
       rx="3"
       ry="3"
       id="rect4" />
    <path
       style="opacity:0.1;fill:#ffffff"
       d="M 7,8 C 5.338,8 4,9.338 4,11 v 1 C 4,10.338 5.338,9 7,9 h 50 c 1.662,0 3,1.338 3,3 V 11 C 60,9.338 58.662,8 57,8 Z"
       id="path6" />
    <path
       id="path891"
       style="fill:#3f3f3f;fill-opacity:1;stroke-width:3.77953"
       d="m 13.056641,18.027344 v 6.960937 7.039063 6.960937 12.447266 h 6.960937 V 38.988281 H 31.789062 V 32.027344 H 20.017578 V 24.988281 H 38.185547 V 18.027344 H 20.017578 Z" />
    <path
       id="rect861"
       style="fill:#ffffff;stroke-width:3.77953"
       d="m 11.056641,16.027344 v 6.960937 7.039063 6.960937 12.447266 h 6.960937 V 36.988281 H 29.789062 V 30.027344 H 18.017578 V 22.988281 H 36.185547 V 16.027344 H 18.017578 Z" />
    <path
       style="opacity:1;fill:#3f3f3f;fill-opacity:1"
       d="m 36,37 v 2 h -1 c -1.662,0 -3,1.338 -3,3 0,1.662 1.338,3 3,3 h 1 v 2 h -3.8164 c 0.412,1.164 1.508,2 2.8164,2 h 1 v 2 h 2 v -2 h 1 c 1.662,0 3,-1.338 3,-3 0,-1.662 -1.338,-3 -3,-3 h -1 v -2 h 3.8164 c -0.412,-1.164 -1.508,-2 -2.816,-2 h -1 v -2 h -2 z m -1,4 h 1 v 2 h -1 c -0.554,0 -1,-0.446 -1,-1 0,-0.554 0.446,-1 1,-1 z m 3,4 h 1 c 0.554,0 1,0.446 1,1 0,0.554 -0.4466,1.0257 -1,1 h -1 z m 8,4 v 2 h 12 v -2 z"
       id="path889" />
    <path
       style="opacity:1;fill:#ffffff;fill-opacity:1"
       d="m 34,35 v 2 h -1 c -1.662,0 -3,1.338 -3,3 0,1.662 1.338,3 3,3 h 1 v 2 h -3.8164 c 0.412,1.164 1.508,2 2.8164,2 h 1 v 2 h 2 v -2 h 1 c 1.662,0 3,-1.338 3,-3 0,-1.662 -1.338,-3 -3,-3 h -1 v -2 h 3.8164 c -0.412,-1.164 -1.508,-2 -2.816,-2 h -1 v -2 h -2 z m -1,4 h 1 v 2 h -1 c -0.554,0 -1,-0.446 -1,-1 0,-0.554 0.446,-1 1,-1 z m 3,4 h 1 c 0.554,0 1,0.446 1,1 0,0.554 -0.4466,1.0257 -1,1 h -1 z m 8,4 v 2 h 12 v -2 z"
       id="path8" />
  </g>
</svg>
