<?xml version="1.0" encoding="UTF-8" standalone="no"?>
<!-- Created with Inkscape (http://www.inkscape.org/) -->

<svg
   version="1.0"
   width="24"
   height="24"
   id="svg2408"
   inkscape:version="1.1 (c68e22c387, 2021-05-23)"
   sodipodi:docname="mps-ui.svg"
   inkscape:export-filename="/home/trlinux/Git-Repolar/mps-ui/icons/paket.png"
   inkscape:export-xdpi="32"
   inkscape:export-ydpi="32"
   xmlns:inkscape="http://www.inkscape.org/namespaces/inkscape"
   xmlns:sodipodi="http://sodipodi.sourceforge.net/DTD/sodipodi-0.dtd"
   xmlns:xlink="http://www.w3.org/1999/xlink"
   xmlns="http://www.w3.org/2000/svg"
   xmlns:svg="http://www.w3.org/2000/svg"
   xmlns:rdf="http://www.w3.org/1999/02/22-rdf-syntax-ns#"
   xmlns:cc="http://creativecommons.org/ns#"
   xmlns:dc="http://purl.org/dc/elements/1.1/">
  <sodipodi:namedview
     pagecolor="#ffffff"
     bordercolor="#666666"
     borderopacity="1"
     objecttolerance="10"
     gridtolerance="10"
     guidetolerance="10"
     inkscape:pageopacity="0"
     inkscape:pageshadow="2"
     inkscape:window-width="1024"
     inkscape:window-height="710"
     id="namedview128"
     showgrid="false"
     inkscape:zoom="11.313709"
     inkscape:cx="7.468815"
     inkscape:cy="15.954096"
     inkscape:window-x="0"
     inkscape:window-y="0"
     inkscape:window-maximized="1"
     inkscape:current-layer="svg2408"
     showguides="true"
     inkscape:guide-bbox="true"
     inkscape:pagecheckerboard="0"
     width="24px" />
  <defs
     id="defs2410">
    <linearGradient
       x1="45.447727"
       y1="92.539597"
       x2="45.447727"
       y2="7.0165396"
       id="ButtonShadow"
       gradientUnits="userSpaceOnUse"
       gradientTransform="scale(1.0058652,0.994169)">
      <stop
         id="stop3750"
         style="stop-color:#000000;stop-opacity:1"
         offset="0" />
      <stop
         id="stop3752"
         style="stop-color:#000000;stop-opacity:0.58823532"
         offset="1" />
    </linearGradient>
    <filter
       color-interpolation-filters="sRGB"
       id="filter3174"
       x="-0.047720931"
       y="-0.048282354"
       width="1.0954419"
       height="1.0965647">
      <feGaussianBlur
         id="feGaussianBlur3176"
         stdDeviation="1.71" />
    </filter>
    <clipPath
       id="clipPath3613">
      <rect
         style="fill:#ffffff;fill-opacity:1;fill-rule:nonzero;stroke:none"
         id="rect3615"
         y="6"
         x="6"
         ry="6"
         rx="6"
         height="84"
         width="84" />
    </clipPath>
    <filter
       id="filter3794-3"
       color-interpolation-filters="sRGB"
       height="1.3915758"
       width="1.3915758"
       y="-0.19578789"
       x="-0.19578789">
      <feGaussianBlur
         stdDeviation="5.28"
         id="feGaussianBlur3796-2" />
    </filter>
    <filter
       id="filter3174-4"
       color-interpolation-filters="sRGB"
       x="-0.047720931"
       y="-0.048282354"
       width="1.0954419"
       height="1.0965647">
      <feGaussianBlur
         stdDeviation="1.71"
         id="feGaussianBlur3176-2" />
    </filter>
    <linearGradient
       id="linearGradient3737-3">
      <stop
         offset="0"
         style="stop-color:#ffffff;stop-opacity:1"
         id="stop3739-9" />
      <stop
         offset="1"
         style="stop-color:#ffffff;stop-opacity:0"
         id="stop3741-55" />
    </linearGradient>
    <linearGradient
       gradientTransform="scale(1.0058652,0.994169)"
       gradientUnits="userSpaceOnUse"
       id="ButtonShadow-3"
       y2="7.0165396"
       x2="45.447727"
       y1="92.539597"
       x1="45.447727">
      <stop
         offset="0"
         style="stop-color:#000000;stop-opacity:1"
         id="stop3750-4" />
      <stop
         offset="1"
         style="stop-color:#000000;stop-opacity:0.58823532"
         id="stop3752-7" />
    </linearGradient>
    <linearGradient
       inkscape:collect="always"
       xlink:href="#linearGradient3737-3"
       id="linearGradient4587"
       gradientUnits="userSpaceOnUse"
       x1="48"
       y1="20.220806"
       x2="48"
       y2="138.66119" />
    <linearGradient
       inkscape:collect="always"
       xlink:href="#ButtonShadow-3"
       id="linearGradient4594"
       gradientUnits="userSpaceOnUse"
       gradientTransform="matrix(1.0058652,0,0,0.994169,97.5,0)"
       x1="45.447727"
       y1="92.539597"
       x2="45.447727"
       y2="7.0165396" />
  </defs>
  <metadata
     id="metadata2413">
    <rdf:RDF>
      <cc:Work
         rdf:about="">
        <dc:format>image/svg+xml</dc:format>
        <dc:type
           rdf:resource="http://purl.org/dc/dcmitype/StillImage" />
      </cc:Work>
    </rdf:RDF>
  </metadata>
  <g
     id="layer2"
     style="display:none">
    <path
       d="M 11,7 C 7.676,7 5,9.676 5,13 v 33.6875 c 2.2377507,0.124029 4.660506,0.235683 5.875,0.4375 0.66093,0.10983 -0.08406,0.240848 -1.125,0.34375 C 8.7090622,47.571654 7.3545491,47.665119 6.84375,47.75 6.2216014,47.853382 5.6264179,47.903999 5,48 v 1.0625 c 0.3803657,0.03607 0.7183843,0.03125 0.9375,0.03125 0.80883,10e-7 1.1599727,0.215701 1.3125,0.5625 0.1525272,0.346797 0.09375,0.839723 0.09375,1.40625 0,0.424828 -0.9420178,0.663014 -1.15625,1.375 C 6.110939,52.691968 5.5510552,52.945524 5,53.1875 v 2.21875 c 0.7355867,0.02497 1.4332639,0.05671 1.84375,0.3125 C 7.1254716,55.894306 6.0687957,56.124098 5,56.3125 v 7.5625 c 1.1379643,0.180337 3.3100715,0.925679 3.96875,1.0625 1.090152,0.226446 1.224723,0.33476 0.875,0.4375 -0.3497231,0.102744 -1.173581,0.175172 -2,0.3125 C 6.8656638,65.850029 5.90816,66.141998 5,66.34375 V 86 c 0,3.324 2.676,6 6,6 h 13 c 0.0954,-0.438237 0.150955,-0.931178 0.25,-1.4375 0.140364,-0.717512 0.25498,-1.34159 0.375,-1.59375 0.03001,-0.06304 0.05815,-0.114053 0.09375,-0.125 0.106804,-0.03285 0.238198,0.191956 0.46875,0.78125 0.304338,0.777871 0.540174,1.646782 0.6875,2.375 h 0.75 c 0.276152,-0.493694 0.578538,-1.138496 0.8125,-1.4375 0.09907,-0.126629 0.275237,0.131501 0.53125,0.375 0.256014,0.2435 0.588904,0.486378 0.9375,0.375 0.648614,-0.207227 1.602807,-0.726227 2.03125,-1 0.139883,-0.08938 0.300164,-0.157976 0.40625,-0.1875 0.106087,-0.02952 0.174331,-0.01774 0.25,0 0.151339,0.03548 0.232196,0.144559 0.34375,0.28125 0.223098,0.27338 0.466785,0.656251 1.0625,0.65625 0.478344,0 0.657185,-0.0325 0.78125,0.0625 0.124065,0.095 0.197087,0.314551 0.40625,0.875 h 8.875 c -0.04778,-0.593879 1.040547,-2.151517 1.21875,-3.0625 0.19092,-0.975995 0.214078,-1.242419 0.28125,-1.0625 0.06717,0.179919 0.192504,0.793906 0.46875,1.5 0.110448,0.282298 0.213887,0.358235 0.3125,0.28125 0.09861,-0.07699 0.168895,-0.293948 0.25,-0.5625 0.162213,-0.537107 0.285649,-1.296709 0.34375,-1.59375 0.131129,-0.670335 0.128655,-1.786501 0.125,-2.28125 -9.11e-4,-0.123687 -0.0059,-0.217815 0,-0.25 0.01779,-0.09656 0.08067,0.312079 0.28125,1.59375 0.163819,1.046767 0.54767,2.687946 0.71875,3.5625 0.169798,0.867992 0.298106,1.322124 0.40625,1.875 H 75.6875 c 0.03877,-0.494956 0.03519,-1.098589 0.0625,-1.5 0.02049,-0.301057 0.06649,-0.487005 0.15625,-0.46875 0.02992,0.0061 0.05077,0.03882 0.09375,0.09375 0.233449,0.298339 0.630596,1.164908 0.96875,1.875 H 85 c 3.324,0 6,-2.676 6,-6 v -7.21875 c -0.16942,0.0045 -0.290112,-4e-6 -0.5,0 -1.330307,0 -2.638456,-4e-6 -3.96875,0 -1.226564,0 -2.05394,-9.64e-4 -2.25,-0.0625 -0.19606,-0.06154 0.232972,-0.183183 1.46875,-0.5 C 86.405034,78.050819 89.092469,77.290673 91,76.875 V 38.46875 C 90.34725,38.202412 89.792969,37.980093 89.25,37.5625 89.107486,37.452886 88.801155,37.170028 88.28125,37 87.761349,36.829972 87.007124,36.743855 86,36.9375 c -1.533473,0.294852 -1.685602,0.283469 -1.25,0.15625 0.4356,-0.127221 1.468635,-0.381012 2.25,-0.53125 1.152717,-0.221645 2.722214,-1.204246 4,-1.84375 v -4.5625 c -0.69831,-0.257978 -1.422206,-0.558272 -1.75,-1.0625 -0.209707,-0.322576 -0.321618,-0.513018 -0.3125,-0.625 0.0091,-0.111981 0.13299,-0.149124 0.25,-0.1875 0.117011,-0.03837 0.261032,-0.05449 0.375,-0.15625 0.11397,-0.101759 0.187497,-0.291619 0.1875,-0.59375 0,-0.32292 0.08246,-0.887065 0.0625,-1.40625 -0.01,-0.259593 -0.03562,-0.49724 -0.125,-0.6875 -0.08939,-0.19026 -0.219089,-0.333004 -0.4375,-0.375 -0.574572,-0.110478 -0.848143,-0.233682 -0.90625,-0.34375 -0.05811,-0.110067 0.07208,-0.18937 0.28125,-0.28125 0.418339,-0.18376 1.132532,-0.339398 1.125,-0.34375 -0.668701,-0.385725 -5.247169,-0.921226 -5,-0.96875 0.332574,-0.06395 0.667437,-0.123553 1,-0.1875 1.047644,-0.201439 2.43278,-0.309227 3.75,-0.5625 0.573261,-0.110227 0.911769,-0.250569 1.125,-0.4375 0.213229,-0.18693 0.294201,-0.423258 0.375,-0.625 V 13 C 91,9.676 88.324,7 85,7 H 33.625 C 33.72158,8.3975706 33.82658,9.959362 33.53125,9.1875 33.320827,8.6375466 33.210422,8.0499534 33,7.5 32.946762,7.3608606 32.903941,7.1705291 32.84375,7 H 30.8125 C 30.571803,7.4923127 30.362863,7.9708281 30.03125,8.1875 29.524321,8.5187294 29.245447,8.6821159 29,8.59375 28.754552,8.5053839 28.523162,8.1669814 28.15625,7.6875 27.992502,7.4735174 27.721718,7.2560338 27.40625,7 h -6.8125 L 19.28125,12.5625 17.53125,7 H 17.3125 l -1.75,8.9375 L 14.15625,7 Z"
       inkscape:connector-curvature="0"
       id="rect3745"
       style="opacity:0.9;fill:url(#ButtonShadow);fill-opacity:1;fill-rule:nonzero;stroke:none;filter:url(#filter3174)" />
  </g>
  <rect
     style="display:none;opacity:0.9;fill:url(#linearGradient4594);fill-opacity:1;fill-rule:nonzero;stroke:none;filter:url(#filter3174-4)"
     id="rect3745-4"
     y="7"
     x="102.5"
     ry="6"
     rx="6"
     height="85"
     width="86" />
  <rect
     style="display:none;opacity:0.1;fill:url(#linearGradient4587);fill-opacity:1;fill-rule:nonzero;stroke:#ffffff;stroke-width:0.5;stroke-linecap:round;stroke-linejoin:miter;stroke-miterlimit:4;stroke-dasharray:none;stroke-dashoffset:0;stroke-opacity:1;filter:url(#filter3794-3)"
     id="rect3171"
     clip-path="url(#clipPath3613)"
     y="15"
     x="15"
     ry="12"
     rx="12"
     height="66"
     width="66"
     transform="translate(97.5)" />
  <g
     id="g4170"
     transform="matrix(0.21571265,0,0,0.21571265,1.75,1.75)">
    <rect
       transform="scale(-1,1)"
       style="fill:#ba976b;fill-opacity:1;stroke:none"
       id="rect6228"
       width="96"
       height="96"
       x="-96"
       y="0" />
    <rect
       y="0"
       x="-96"
       height="26.250002"
       width="96"
       id="rect4790"
       style="fill:#d2b38a;fill-opacity:1;stroke:none"
       transform="scale(-1,1)" />
    <rect
       y="0"
       x="-60.75"
       height="26.125"
       width="25.500002"
       id="rect5302"
       style="fill:#d8cab2;fill-opacity:1;stroke:none"
       transform="scale(-1,1)" />
    <rect
       transform="scale(-1,1)"
       style="fill:#916c42;fill-opacity:1;stroke:none"
       id="rect4798"
       width="1.9548006"
       height="26.250002"
       x="-48.977398"
       y="0" />
    <rect
       y="93.5"
       x="0"
       height="2.5"
       width="96"
       id="rect3878"
       style="opacity:0.823529;fill:#916438;fill-opacity:1;stroke:none" />
    <rect
       style="opacity:0.524887;fill:#986d41;fill-opacity:1;stroke:none"
       id="rect4796"
       width="96"
       height="2.5"
       x="0"
       y="26.000002" />
    <path
       inkscape:connector-curvature="0"
       id="path4487"
       d="m 55.889389,90.6214 c -0.05048,-0.08171 -0.09475,-0.666507 -0.09837,-1.299592 -0.0058,-1.014221 -0.04605,-1.226048 -0.33847,-1.781735 -0.182536,-0.346871 -0.331881,-0.686166 -0.331881,-0.754004 0,-0.0678 0.231206,-0.01668 0.51379,0.113542 1.208083,0.557002 2.8621,1.202065 3.523495,1.374154 1.056848,0.274975 2.238582,1.308788 1.26606,1.107586 -0.384439,-0.0795 -0.5727,-0.188371 -1.727709,-0.998772 -0.370622,-0.260035 -0.612174,-0.332735 -1.105555,-0.332735 -1.022628,0 -1.54355,0.661702 -1.546545,1.964487 -0.0019,0.802892 -0.01111,0.839467 -0.154808,0.60706 z M 40.250964,89.725977 c 0,-0.981193 0.216125,-1.694027 0.966368,-3.187284 0.571777,-1.138043 1.689052,-2.38797 3.476404,-3.889148 0.548546,-0.460719 0.997172,-0.90296 0.996947,-0.982766 -3.63e-4,-0.107117 -0.546092,-0.145917 -2.085386,-0.148219 -1.444464,-0.0028 -2.231894,-0.05399 -2.56324,-0.168732 l -0.478269,-0.165577 1.324514,-0.629143 c 2.47513,-1.175693 5.108689,-3.457831 5.325799,-4.615139 0.179175,-0.955091 -0.441992,-0.772665 -1.673469,0.491454 -0.92114,0.945548 -1.345726,1.159198 -2.306502,1.160599 -0.661113,9.59e-4 -2.015454,0.490112 -3.345841,1.208402 -1.725978,0.931883 -3.398014,1.708624 -3.83253,1.780394 -0.443454,0.07327 -1.206691,-0.317661 -1.762845,-0.902875 l -0.336579,-0.354158 0.489797,-0.339429 c 0.596126,-0.413117 1.363345,-1.242869 1.277548,-1.38168 -0.152573,-0.246879 -1.228646,-0.382027 -2.419208,-0.303842 l -1.230709,0.08084 -0.43602,-0.509388 c -0.239808,-0.280165 -0.589591,-0.804809 -0.777296,-1.165872 -0.275649,-0.530237 -0.30956,-0.676355 -0.176344,-0.759796 0.09072,-0.05678 0.758442,-0.171686 1.483842,-0.255231 1.255238,-0.144583 1.315242,-0.164263 1.242957,-0.407448 -0.221228,-0.744319 -0.506039,-0.942394 -2.105937,-1.464651 -1.787238,-0.583401 -2.529049,-1.041455 -3.151277,-1.945829 l -0.377391,-0.548521 1.186936,0.08712 1.186935,0.08713 -0.189773,-0.290556 c -0.186256,-0.285162 -0.71563,-0.707127 -2.762564,-2.202042 -1.19624,-0.873637 -1.74863,-1.544103 -1.863375,-2.261682 -0.04516,-0.282393 -0.05845,-0.537106 -0.02956,-0.566021 0.02891,-0.02891 0.306895,0.141549 0.617732,0.378815 0.310832,0.237266 0.632759,0.431391 0.715396,0.431391 0.08263,0 0.444477,0.219527 0.8041,0.487841 0.789483,0.58903 1.127393,0.750765 5.739857,2.747268 4.310216,1.865679 6.400031,2.653183 8.761436,3.301565 4.125257,1.132711 5.505023,1.233 8.160199,0.593144 1.649495,-0.397504 1.758514,-0.407918 4.291661,-0.410105 2.213137,-0.0019 2.805662,0.03826 3.98943,0.270699 1.553258,0.304944 2.713977,0.611721 2.630479,0.695218 -0.0538,0.0538 -2.662797,0.346669 -4.413633,0.495434 -0.482057,0.04096 -0.876466,0.111539 -0.876466,0.15685 0,0.235265 1.252759,1.11148 2.677593,1.87278 l 0.976141,0.521567 -1.131737,0.566467 c -0.622457,0.31156 -1.322145,0.679816 -1.554864,0.818339 -0.477416,0.284193 -1.208917,0.938137 -1.208917,1.080755 0,0.05169 0.176806,0.18818 0.392899,0.303199 0.326874,0.173986 0.823514,0.21738 2.955233,0.25828 2.322399,0.0446 2.581682,0.07048 2.769023,0.277547 0.264489,0.292246 0.670931,0.288699 1.530427,-0.01343 0.378352,-0.132981 0.838879,-0.241479 1.023393,-0.241105 0.469789,9.59e-4 1.24216,0.22957 1.24216,0.36768 0,0.0634 -0.04241,0.115202 -0.09419,0.115202 -0.05183,0 -0.304039,0.20383 -0.560513,0.452942 l -0.466325,0.452943 0.07763,1.75334 c 0.0427,0.964335 0.111672,2.174944 0.153292,2.690239 l 0.07565,0.936918 h -0.757494 -0.757493 l 0.06055,0.846246 c 0.03327,0.465428 0.03739,0.846237 0.0089,0.846237 -0.02831,0 -0.605883,-0.398175 -1.28344,-0.884835 -0.677562,-0.486651 -1.810263,-1.275321 -2.517116,-1.752584 l -1.285191,-0.867746 -0.730878,0.07643 -0.730878,0.07643 -0.971867,-1.940867 c -0.910068,-1.817467 -1.223949,-2.315673 -1.220477,-1.937176 7.77e-4,0.08708 0.164005,0.971863 0.362675,1.966281 0.513771,2.571585 0.514244,2.569072 -0.395724,2.104843 -0.278044,-0.141853 -0.656686,-0.301252 -0.841427,-0.354246 -0.333499,-0.09561 -0.335898,-0.09225 -0.335898,0.475412 v 0.571749 l -0.392897,-0.04527 c -0.534626,-0.06157 -2.452078,0.343237 -4.761206,1.005197 -3.835959,1.099646 -5.901837,2.05536 -7.26753,3.362115 l -0.513793,0.491608 z m 24.230582,-0.66105 c -0.0088,-1.415685 -0.0011,-1.429877 0.630027,-1.189827 0.184425,0.0701 1.213684,0.177746 2.287244,0.239178 2.709476,0.155047 2.925751,0.283674 0.766111,0.455637 -0.957488,0.07624 -1.946368,0.197385 -2.197527,0.269212 -0.532703,0.152343 -1.295457,0.779195 -1.298133,1.06684 -0.0011,0.109476 -0.04181,0.261416 -0.09068,0.337654 -0.04886,0.07624 -0.09252,-0.454179 -0.09706,-1.178694 z m 5.675416,-5.02091 c 0.221119,-1.262325 0.228297,-1.608908 0.0393,-1.897339 -0.218677,-0.333733 -0.842892,-0.499463 -1.187196,-0.315196 -0.193511,0.103564 -0.221604,0.203888 -0.155603,0.555707 0.07657,0.408177 0.06799,0.42261 -0.174315,0.292928 -0.502523,-0.268945 -0.610317,-0.726049 -0.32963,-1.397829 l 0.172546,-0.412963 0.505777,0.19867 c 0.473505,0.186003 0.544278,0.185007 1.109116,-0.01554 0.599561,-0.212949 0.604499,-0.212633 0.788179,0.04959 0.274477,0.391875 0.894397,0.601027 1.781394,0.601027 0.906515,0 0.944637,0.06282 0.534864,0.881288 -0.537641,1.073897 -1.370541,1.683038 -2.513536,1.838247 l -0.652745,0.0886 z m 1.691935,-3.810693 c -0.141383,-0.155776 -0.408711,-0.52804 -0.594057,-0.82725 -0.436242,-0.704241 -0.622714,-0.837731 -1.176804,-0.842401 -0.491916,-0.0038 -0.634117,0.187115 -0.777727,1.046058 l -0.06436,0.385 L 68.75034,79.67337 68.264724,79.351998 67.862052,79.81782 67.45938,80.283651 66.7949,79.676352 c -1.041675,-0.952031 -2.052491,-1.190356 -3.45358,-0.814294 -1.006351,0.270114 -1.165984,0.244913 -1.254591,-0.198134 l -0.07589,-0.379475 -0.634347,0.07701 c -0.348889,0.04239 -1.096757,0.104629 -1.661927,0.138418 l -1.027581,0.06137 0.967134,-0.47774 c 0.531925,-0.262759 1.375146,-0.625031 1.873825,-0.805041 0.498677,-0.180008 0.928042,-0.344837 0.95414,-0.366299 0.142717,-0.117349 -0.37281,-0.443707 -1.413583,-0.894885 -0.644926,-0.27958 -1.252254,-0.583506 -1.349616,-0.675396 -0.151925,-0.143376 -0.08337,-0.167216 0.483567,-0.168156 1.252923,-0.0019 5.19136,-1.066983 5.843609,-1.580044 0.56485,-0.444312 0.432891,-0.759219 -0.558908,-1.333788 -1.15986,-0.671926 -4.150716,-2.664389 -4.68456,-3.120783 l -0.423122,-0.361735 0.672926,-0.005 c 1.414566,-0.01044 3.277625,0.489052 5.581693,1.496129 2.764767,1.208449 4.360321,2.251661 6.008651,3.928627 0.975778,0.99273 1.023872,1.024846 1.101686,0.735812 0.0745,-0.276799 0.109414,-0.242697 0.414741,0.405396 0.251842,0.534561 0.363525,1.02243 0.456632,1.994723 0.143376,1.497208 0.02905,2.107691 -0.506877,2.707548 -0.310499,0.347513 -0.420301,0.387733 -1.172755,0.429611 -0.748213,0.04162 -0.855571,0.01831 -1.087255,-0.237029 z m -1.85854,-0.404131 c 0,-0.614981 0.194476,-0.71222 0.604459,-0.30223 0.245987,0.245986 0.337502,0.556991 0.125299,0.425851 -0.06407,-0.0396 -0.227264,0.03883 -0.362676,0.174198 -0.135404,0.135407 -0.273388,0.246197 -0.306636,0.246197 -0.03327,0 -0.06046,-0.244807 -0.06046,-0.544016 z m -7.676631,-7.509496 c -0.332453,-0.09561 -1.05004,-0.255269 -1.59464,-0.354695 -0.544595,-0.09944 -1.219333,-0.261629 -1.499418,-0.360446 -0.280082,-0.09882 -1.221736,-0.258583 -2.092562,-0.355036 -1.768067,-0.195827 -4.400959,-0.09644 -5.935433,0.224043 -0.465433,0.0972 -1.266769,0.23465 -1.780743,0.305429 L 48.476423,71.907675 46.56997,70.992054 C 43.048392,69.300732 40.636579,68.418407 37.651788,67.72947 35.062541,67.131832 35.186449,67.19249 34.141743,66.011061 32.806855,64.501474 28.972381,58.677953 28.076291,56.799298 25.218207,50.807328 21.527978,48.313245 11.539145,45.622471 6.4513921,44.251942 5.165461,43.863919 4.2856375,43.43377 2.685498,42.651456 2.6013557,42.392105 4.0692771,42.766901 c 1.3680395,0.349292 4.38129,0.823242 6.5285329,1.026865 1.453694,0.137855 1.960465,0.144475 2.417836,0.03158 0.318265,-0.07855 0.563363,-0.197225 0.544668,-0.263717 -0.01872,-0.06648 -0.753111,-0.421663 -1.63204,-0.789272 C 10.360049,42.116454 8.6260675,41.166612 7.4292101,40.30786 7.0969696,40.069476 6.8893315,39.874433 6.9677855,39.874433 c 0.078456,0 1.0847103,0.329007 2.236115,0.731124 2.7697805,0.967324 5.4644745,1.777751 8.1984985,2.465697 2.558807,0.643853 2.900574,0.745972 4.924408,1.471401 1.477771,0.529692 1.879101,0.631457 1.658156,0.420447 -0.06317,-0.06032 -1.338877,-0.670882 -2.834915,-1.35679 C 16.44465,41.448962 10.818929,37.811707 9.6295478,36.15785 9.4266595,35.875729 9.283878,35.621686 9.3122572,35.593308 c 0.028368,-0.02838 0.5410328,0.32623 1.1392388,0.788014 0.598207,0.461784 1.511867,1.053987 2.030358,1.316008 0.518485,0.262021 1.100609,0.588838 1.293605,0.726265 1.624167,1.15651 7.730266,3.361755 8.975901,3.241688 0.391255,-0.03771 0.381841,-0.04981 -1.722202,-2.214321 -2.015432,-2.073345 -3.626759,-4.007423 -3.626759,-4.353203 0,-0.0881 -0.190403,-0.557501 -0.42312,-1.043099 -0.451895,-0.94295 -0.569974,-1.458556 -0.216842,-0.946851 1.036793,1.502351 4.240086,4.872249 5.985711,6.297031 2.792355,2.279123 8.435926,5.492663 8.435926,4.803551 0,-0.203992 -0.556605,-1.168727 -2.134213,-3.699123 -1.647636,-2.64271 -2.554117,-4.415545 -3.152568,-6.165584 -0.405537,-1.185917 -0.444917,-1.418082 -0.450007,-2.653108 -0.0066,-1.612825 0.192607,-2.064921 0.408196,-0.926183 0.460579,2.432768 1.114063,4.000201 2.638876,6.329524 3.034371,4.635338 9.026774,10.148611 14.36766,13.218878 0.966453,0.555575 1.861941,0.759198 1.861941,0.423383 0,-0.07668 -0.08776,-0.905016 -0.195018,-1.840754 -0.205305,-1.791025 -0.191727,-4.439307 0.02471,-4.82093 0.0911,-0.160642 0.127572,-0.02143 0.149427,0.570597 0.07929,2.147764 1.487403,5.3764 3.144529,7.210059 0.473599,0.52405 0.883109,0.828468 1.538628,1.143758 0.971707,0.467376 0.934177,0.409956 1.25932,1.926559 0.435193,2.029922 1.07862,4.036985 1.8409,5.742365 1.370907,3.066998 2.627952,4.868621 5.096091,7.303821 1.717179,1.694263 2.46769,2.305327 4.51962,3.679843 0.615037,0.411992 1.118249,0.774878 1.118249,0.806409 0,0.0889 -0.249219,0.05102 -0.90669,-0.138217 z m 7.411346,-2.331593 c -1.071088,-0.728802 -1.4256,-0.888604 -3.828348,-1.725728 -1.880225,-0.655068 -3.126506,-0.903661 -5.396377,-1.076409 -2.207115,-0.167971 -2.316721,-0.210287 -3.175168,-1.22588 -0.608217,-0.71956 -1.643393,-2.379339 -1.784262,-2.860849 -0.07836,-0.267813 -0.05946,-0.282682 0.261437,-0.205823 0.190238,0.04557 1.060328,0.114346 1.93353,0.152843 1.96192,0.0865 2.981082,-0.110739 4.494707,-0.869816 1.669215,-0.837119 2.440523,-1.821475 2.440523,-3.114634 0,-0.856027 -0.197916,-1.265073 -0.884215,-1.827447 -0.771714,-0.63236 -1.580894,-0.949167 -2.591423,-1.014582 -1.51056,-0.09778 -0.956265,-0.22366 0.90669,-0.205904 1.900353,0.0181 1.741638,-0.0125 4.986789,0.962431 0.858414,0.257896 1.895549,0.481616 2.401083,0.517933 l 0.88993,0.06392 -0.08923,-0.288769 c -0.420316,-1.360281 -2.01246,-2.550426 -5.328467,-3.983097 -1.794438,-0.775279 -1.799927,-0.778852 -1.258292,-0.818667 0.846595,-0.06223 2.749993,0.211024 3.722669,0.534432 1.316385,0.437693 2.172309,0.908424 4.406947,2.423708 2.103615,1.426436 2.506191,1.588515 2.761359,1.111726 0.221303,-0.413509 0.07433,-2.555967 -0.234373,-3.417217 -0.558562,-1.558175 -1.801987,-3.108108 -3.44953,-4.299862 -0.593183,-0.429078 -0.850232,-0.679716 -0.724747,-0.706664 0.262794,-0.05644 1.776766,0.705143 2.531626,1.273489 0.801091,0.60315 3.781354,3.195114 5.244759,4.56142 2.199234,2.053308 2.906621,2.242993 3.284237,0.880685 0.183499,-0.661962 -0.01237,-2.296983 -0.444686,-3.711986 -0.418507,-1.369785 -1.606474,-3.785987 -2.222442,-4.520208 -0.272799,-0.325173 -0.474174,-0.613052 -0.447496,-0.639733 0.02666,-0.02669 0.374173,0.142356 0.772224,0.375638 2.292629,1.343682 4.326919,5.072584 4.8893,8.962267 0.145554,1.00666 0.15217,1.020387 0.491992,1.020387 1.28889,0 2.602895,-2.068878 2.643709,-4.162487 0.0077,-0.403498 0.05341,-0.896837 0.101281,-1.096309 l 0.08698,-0.362674 0.109649,0.362674 c 0.06032,0.199472 0.107587,1.341902 0.105093,2.538731 -0.0048,2.01811 -0.02839,2.253165 -0.33263,3.238489 -0.407794,1.320613 -1.047171,2.606033 -1.601438,3.219537 -0.718282,0.79505 -1.54391,1.356199 -5.979462,4.064014 -2.359901,1.440667 -4.644321,2.871088 -5.076509,3.178714 -1.068658,0.760663 -2.612868,2.255019 -2.983121,2.886812 -0.167167,0.285249 -0.367245,0.518629 -0.444616,0.518629 -0.07736,0 -0.612724,-0.32119 -1.189663,-0.713757 z"
       style="fill:#986d41;fill-opacity:1;stroke-width:0.32" />
  </g>
</svg>
